HIERARCHY
ROOT Hips
{
    OFFSET 0.000000 0.000000 0.000000
    CHANNELS 6 Xposition Yposition Zposition Zrotation Xrotation Yrotation
    JOINT Spine
    {
        OFFSET -0.000000 7.236184 0.000000
        CHANNELS 3 Zrotation Xrotation Yrotation
        JOINT Spine1
        {
            OFFSET -0.000000 20.420147 0.000000
            CHANNELS 3 Zrotation Xrotation Yrotation
            JOINT Neck
            {
                OFFSET -0.000000 20.336288 1.848754
                CHANNELS 3 Zrotation Xrotation Yrotation
                JOINT Head
                {
                    OFFSET -0.000000 12.354461 -1.764923
                    CHANNELS 3 Zrotation Xrotation Yrotation
                    End Site
                    {
                        OFFSET -0.000000 22.061537 0.000000
                    }
                }
            }
            JOINT LeftShoulder
            {
                OFFSET 3.573296 18.396038 -0.314103
                CHANNELS 3 Zrotation Xrotation Yrotation
                JOINT LeftArm
                {
                    OFFSET 10.880760 0.000000 0.000000
                    CHANNELS 3 Zrotation Xrotation Yrotation
                    JOINT LeftForeArm
                    {
                        OFFSET 27.185530 0.000000 0.000000
                        CHANNELS 3 Zrotation Xrotation Yrotation
                        JOINT LeftHand
                        {
                            OFFSET 27.825975 0.000000 0.000000
                            CHANNELS 3 Zrotation Xrotation Yrotation
                            End Site
                            {
                                OFFSET 13.236923 0.000000 0.000000
                            }
                        }
                    }
                }
            }
            JOINT RightShoulder
            {
                OFFSET -3.474926 18.396038 -0.314103
                CHANNELS 3 Zrotation Xrotation Yrotation
                JOINT RightArm
                {
                    OFFSET -10.880760 0.000000 0.000000
                    CHANNELS 3 Zrotation Xrotation Yrotation
                    JOINT RightForeArm
                    {
                        OFFSET -27.185530 0.000000 0.000000
                        CHANNELS 3 Zrotation Xrotation Yrotation
                        JOINT RightHand
                        {
                            OFFSET -27.825975 0.000000 0.000000
                            CHANNELS 3 Zrotation Xrotation Yrotation
                            End Site
                            {
                                OFFSET -13.236923 0.000000 0.000000
                            }
                        }
                    }
                }
            }
        }
    }
    JOINT LeftUpLeg
    {
        OFFSET 8.824615 0.000000 0.000000
        CHANNELS 3 Zrotation Xrotation Yrotation
        JOINT LeftLeg
        {
            OFFSET -0.000000 -35.111282 0.000000
            CHANNELS 3 Zrotation Xrotation Yrotation
            JOINT LeftFoot
            {
                OFFSET -0.000000 -42.324711 0.000000
                CHANNELS 3 Zrotation Xrotation Yrotation
                JOINT LeftToeBase
                {
                    OFFSET -0.000000 -5.735999 13.236923
                    CHANNELS 3 Zrotation Xrotation Yrotation
                    End Site
                    {
                        OFFSET -0.000000 0.000000 3.529846
                    }
                }
            }
        }
    }
    JOINT RightUpLeg
    {
        OFFSET -8.824615 0.000000 0.000000
        CHANNELS 3 Zrotation Xrotation Yrotation
        JOINT RightLeg
        {
            OFFSET -0.000000 -35.111282 0.000000
            CHANNELS 3 Zrotation Xrotation Yrotation
            JOINT RightFoot
            {
                OFFSET -0.000000 -42.324711 0.000000
                CHANNELS 3 Zrotation Xrotation Yrotation
                JOINT RightToeBase
                {
                    OFFSET -0.000000 -5.735999 13.236923
                    CHANNELS 3 Zrotation Xrotation Yrotation
                    End Site
                    {
                        OFFSET -0.000000 0.000000 3.529846
                    }
                }
            }
        }
    }
}
MOTION
Frames:    10
Frame Time:    0.008333
-5.808270    84.822426    101.047981    -1.939016    -5.069764    -179.594040    -4.531888    -16.049780    -1.129746    1.347486    7.409728    -0.577840    2.308906    8.876963    -4.351198    4.859810    2.607212    -4.104067    -0.873446    17.004278    1.565338    -54.152683    39.757862    -32.473564    -0.373158    -4.196929    -13.843889    18.582026    -3.864892    2.311300    8.245799    18.914276    -8.184392    47.502323    42.140369    32.278931    -1.901522    -9.581487    15.665019    -16.414848    -8.914831    -2.868639    2.897424    -5.518668    -5.841913    -0.348635    9.240676    7.976015    -4.312183    -7.011662    -11.470436    -1.250589    0.174141    1.385789    -9.169564    -0.580775    -1.006941    2.111333    0.831047    -2.667669    4.866707    -2.798442    -9.992559    0.050448    0.075354    -0.054558    
-5.775672    84.819954    101.018127    -1.931069    -5.088415    -179.589798    -4.544487    -16.040548    -1.115544    1.328688    7.398401    -0.560848    2.312148    8.843663    -4.376567    4.897448    2.590009    -4.126172    -0.861409    17.007126    1.555447    -54.218826    39.683044    -32.366261    -0.394403    -4.226019    -13.779593    18.596924    -3.894402    2.321322    8.250414    18.899652    -8.181371    47.468044    42.145920    32.293533    -1.925136    -9.601100    15.728110    -16.393620    -8.930559    -2.869839    2.916945    -5.544337    -5.780043    -0.327902    9.283258    7.954719    -4.341754    -7.024442    -11.507059    -1.252990    0.169933    1.388460    -9.141514    -0.581727    -1.120942    2.118127    0.943643    -1.386940    4.789617    -3.020754    -11.146110    0.062205    0.066373    -0.067273    
-5.743715    84.817520    100.988647    -1.922959    -5.106942    -179.585571    -4.557061    -16.031862    -1.101680    1.310823    7.387354    -0.544301    2.315184    8.810779    -4.401580    4.933957    2.573371    -4.148039    -0.849605    17.009899    1.545763    -54.284660    39.608681    -32.259605    -0.415713    -4.254601    -13.715725    18.609238    -3.923410    2.331378    8.254397    18.885218    -8.178378    47.434551    42.151306    32.307816    -1.948252    -9.620313    15.790196    -16.373556    -8.945960    -2.870798    2.936159    -5.569981    -5.720416    -0.307239    9.325642    7.935626    -4.371865    -7.037049    -11.543923    -1.255240    0.165260    1.390965    -9.113672    -0.582196    -1.227996    2.122312    1.046293    -0.214919    4.714017    -3.223653    -12.199469    0.073588    0.057749    -0.079585    
-5.712467    84.815102    100.959396    -1.914519    -5.125576    -179.581436    -4.569536    -16.023951    -1.088179    1.293690    7.376466    -0.528231    2.317607    8.778574    -4.426392    4.970418    2.557215    -4.169661    -0.837721    17.012587    1.536220    -54.351429    39.534103    -32.152016    -0.437568    -4.282727    -13.651796    18.616304    -3.952101    2.341707    8.257883    18.870937    -8.175060    47.401855    42.156681    32.321545    -1.971252    -9.639310    15.851357    -16.355110    -8.961133    -2.871640    2.955194    -5.595945    -5.664215    -0.286918    9.368211    7.920328    -4.403376    -7.049596    -11.581561    -1.257401    0.159989    1.393373    -9.086143    -0.581783    -1.324575    2.125013    1.135554    0.818055    4.642632    -3.402869    -13.126005    0.084384    0.049824    -0.091262    
-5.681868    84.812714    100.930069    -1.905662    -5.144493    -179.577316    -4.582212    -16.016798    -1.075244    1.277557    7.365597    -0.512455    2.319577    8.747036    -4.451120    5.006229    2.540967    -4.191198    -0.825818    17.015604    1.527310    -54.419693    39.458736    -32.042843    -0.460724    -4.310772    -13.586870    18.616579    -3.980878    2.352598    8.260540    18.857037    -8.171672    47.369602    42.161907    32.335480    -1.994122    -9.657941    15.911873    -16.338860    -8.975883    -2.872485    2.974105    -5.622561    -5.611327    -0.266899    9.411481    7.909037    -4.437134    -7.062179    -11.620487    -1.259475    0.153302    1.395687    -9.058810    -0.580234    -1.409397    2.126878    1.211017    1.709684    4.576838    -3.558940    -13.924626    0.094540    0.042430    -0.102247    
-5.652593    84.810349    100.901115    -1.896519    -5.163446    -179.573395    -4.594849    -16.010828    -1.062794    1.262671    7.355049    -0.497444    2.320824    8.716378    -4.475438    5.041295    2.525605    -4.212352    -0.814238    17.018389    1.519155    -54.488831    39.384266    -31.932714    -0.484792    -4.338639    -13.521914    18.608494    -4.009595    2.364267    8.262581    18.843494    -8.168073    47.338730    42.166847    32.348660    -2.016641    -9.675798    15.970614    -16.325691    -8.989805    -2.873686    2.992452    -5.649396    -5.562437    -0.247393    9.454848    7.902197    -4.473559    -7.074623    -11.660723    -1.261626    0.145055    1.398092    -9.032259    -0.577567    -1.479803    2.128529    1.271667    2.449872    4.518726    -3.690613    -14.587916    0.103609    0.035928    -0.112056    
-5.624729    84.808029    100.872459    -1.887217    -5.182585    -179.569641    -4.607605    -16.006250    -1.050903    1.249060    7.344757    -0.482960    2.321375    8.686622    -4.499399    5.075459    2.511242    -4.233240    -0.802810    17.021511    1.511729    -54.558590    39.310333    -31.822004    -0.510442    -4.366462    -13.456724    18.592100    -4.038492    2.376727    8.263809    18.830568    -8.164492    47.309013    42.171581    32.361568    -2.038918    -9.692811    16.027363    -16.315844    -9.002715    -2.875559    3.010167    -5.676645    -5.517275    -0.228561    9.498376    7.899461    -4.513472    -7.086799    -11.702295    -1.263915    0.134677    1.400654    -9.006803    -0.573746    -1.535508    2.130712    1.318852    3.056762    4.467712    -3.801214    -15.134103    0.111644    0.030294    -0.120747    
-5.598112    84.805687    100.843727    -1.877698    -5.201974    -179.566162    -4.620676    -16.002953    -1.039267    1.236877    7.334467    -0.468820    2.320755    8.657917    -4.523304    5.109526    2.497143    -4.253965    -0.792063    17.024769    1.504886    -54.629539    39.236538    -31.708939    -0.537856    -4.394516    -13.390623    18.567795    -4.067804    2.390127    8.264133    18.818157    -8.160882    47.280827    42.175770    32.373821    -2.061207    -9.708674    16.082275    -16.310093    -9.014267    -2.878309    3.027243    -5.704285    -5.474827    -0.210033    9.542330    7.900662    -4.558388    -7.098614    -11.746154    -1.266624    0.121710    1.403690    -8.982171    -0.568560    -1.576729    2.133500    1.354367    3.552096    4.423142    -3.894686    -15.584401    0.118609    0.025658    -0.128281    
-5.572899    84.803322    100.814964    -1.867942    -5.221438    -179.562958    -4.633508    -16.000742    -1.027820    1.225264    7.324032    -0.454830    2.319493    8.629994    -4.547065    5.143363    2.484100    -4.274559    -0.781260    17.028452    1.498856    -54.701443    39.163185    -31.594496    -0.567008    -4.422024    -13.323698    18.537882    -4.096751    2.404058    8.263979    18.806545    -8.157458    47.253925    42.179440    32.385883    -2.083285    -9.723064    16.134888    -16.309004    -9.024099    -2.882284    3.043757    -5.732021    -5.435002    -0.192060    9.586375    7.905779    -4.608971    -7.109729    -11.792411    -1.269912    0.106348    1.407372    -8.958421    -0.561798    -1.602720    2.137098    1.379251    3.949921    4.384281    -3.973407    -15.953479    0.124504    0.021912    -0.134657    
-5.549284    84.800949    100.786232    -1.857937    -5.240558    -179.560150    -4.645808    -15.999411    -1.016539    1.214218    7.313516    -0.440927    2.317576    8.603007    -4.570531    5.176713    2.471876    -4.294827    -0.770951    17.032389    1.493855    -54.773373    39.091045    -31.479244    -0.597394    -4.447701    -13.256661    18.506617    -4.124066    2.417830    8.263412    18.795570    -8.154259    47.228657    42.182983    32.397350    -2.105283    -9.735740    16.184471    -16.313074    -9.031958    -2.887630    3.059670    -5.759200    -5.397838    -0.174755    9.630151    7.914522    -4.665727    -7.119877    -11.840714    -1.273815    0.087599    1.411744    -8.935425    -0.553145    -1.613346    2.141279    1.394621    4.263137    4.350613    -4.039375    -16.254105    0.129470    0.018867    -0.140029    
